<svg width="39" height="43" viewBox="0 0 39 43" fill="none" xmlns="http://www.w3.org/2000/svg">
<path d="M16.8657 0.153596C22.0619 1.07857 26.5235 3.55424 30.822 7.90707C37.1063 14.1915 39.7725 22.7339 38.0585 31.0587C37.4328 34.1328 36.6983 35.6019 35.5829 36.0644C33.5153 36.935 29.7065 35.3843 26.85 32.5549C24.4287 30.1337 23.0141 27.2499 22.1435 23.0059C21.1369 18.1634 20.8921 17.3473 19.6678 14.6539C17.7091 10.4371 15.4782 7.71663 11.5879 4.72406C10.3365 3.79909 9.4115 2.84691 9.30268 2.49324C9.11225 1.70429 9.54753 0.833725 10.3093 0.425647C11.0438 0.0175701 15.2606 -0.145661 16.8657 0.153596Z"/>
<path d="M8.13285 7.14532C12.3497 9.32173 15.1518 13.3209 16.2944 18.7891C17.8179 25.9713 19.1781 29.2903 22.0891 32.9902C23.0413 34.1872 24.5376 35.7107 25.4081 36.3637C28.5911 38.8121 29.3529 39.6283 29.2713 40.526C29.1352 41.8319 27.911 42.3216 24.592 42.3216C18.362 42.3216 12.7577 39.6555 7.53434 34.2417C2.50139 29.0455 -0.436768 21.5641 0.0529251 15.198C0.379387 10.8452 1.4948 7.0365 2.61021 6.43798C2.93667 6.27475 3.83444 6.13873 4.65059 6.13873C5.84762 6.13873 6.55495 6.35637 8.13285 7.14532Z"/>
</svg>
