<svg id="coffee-path" preserveAspectRatio="xMidYMax meet" viewBox="0 0 1854 1618" fill="none"
    xmlns="http://www.w3.org/2000/svg">
    <path d="M3 0.5V682.852C3 718.69 21.8618 776.75 98.2519 802.624C146.349 818.915 140.376 862.668 127.488 877.128C114.599 891.589 78.2112 902.911 72.7885 928.998C68.0688 951.704 96.3657 975.209 96.3657 975.209C96.3657 975.209 54.8698 976.152 35.065 967.665C80.3332 1002.56 115.12 996.84 153.894 957.291C201.048 909.193 285.926 946.917 292.528 955.405C292.528 955.405 308.56 1063.86 195.39 1094.04H116.171C24.691 1078.95 13.374 999.73 12.4309 986.526C11.4878 973.323 12.4309 877.128 12.4309 877.128H292.528V898.819C292.528 898.819 372.69 885.616 372.69 952.575C372.69 1019.53 303.845 1013.88 303.845 1013.88C303.845 1013.88 288.756 1064.8 256.691 1082.72C256.691 1276.05 306.786 1533.31 796.248 1452.25C1178.54 1388.94 1419.9 1324.69 1624.45 1482.79C1940.06 1726.74 1588.62 2167.48 1588.62 2167.48"/>
</svg>