<svg id="coffee-sidebar" width="39" height="243" viewBox="0 0 39 243" fill="none"
    xmlns="http://www.w3.org/2000/svg">
    <g id="Frame 6" className="sidebar">
        <g id="seed-1" className='sidebar-fill' >
            <path d="M21.7017 0.153596C16.5055 1.07857 12.0438 3.55424 7.74543 7.90707C1.46104 14.1915 -1.20507 22.7339 0.508855 31.0587C1.13457 34.1328 1.86911 35.6019 2.98452 36.0644C5.05212 36.935 8.86084 35.3843 11.7174 32.5549C14.1386 30.1337 15.5533 27.2499 16.4239 23.0059C17.4305 18.1634 17.6753 17.3473 18.8995 14.6539C20.8583 10.4371 23.0891 7.71663 26.9795 4.72406C28.2309 3.79909 29.1559 2.84691 29.2647 2.49324C29.4551 1.70429 29.0199 0.833725 28.2581 0.425647C27.5236 0.0175701 23.3068 -0.145661 21.7017 0.153596Z"/>
            <path d="M30.4345 7.14532C26.2177 9.32173 23.4156 13.3209 22.273 18.7891C20.7495 25.9713 19.3892 29.2903 16.4783 32.9902C15.5261 34.1872 14.0298 35.7107 13.1593 36.3637C9.97625 38.8121 9.21451 39.6283 9.29612 40.526C9.43215 41.8319 10.6564 42.3216 13.9754 42.3216C20.2054 42.3216 25.8097 39.6555 31.033 34.2417C36.066 29.0455 39.0042 21.5641 38.5145 15.198C38.188 10.8452 37.0726 7.0365 35.9572 6.43798C35.6307 6.27475 34.7329 6.13873 33.9168 6.13873C32.7198 6.13873 32.0124 6.35637 30.4345 7.14532Z"/>
        </g>
        <g id="seed-2" className='sidebar-stroke'>
            <path d="M16.8657 100.475C22.0619 101.4 26.5235 103.876 30.822 108.229C37.1063 114.513 39.7725 123.055 38.0585 131.38C37.4328 134.454 36.6983 135.923 35.5829 136.386C33.5153 137.257 29.7065 135.706 26.85 132.876C24.4287 130.455 23.0141 127.571 22.1435 123.327C21.1369 118.485 20.8921 117.669 19.6678 114.975C17.7091 110.759 15.4782 108.038 11.5879 105.046C10.3365 104.121 9.4115 103.168 9.30268 102.815C9.11225 102.026 9.54752 101.155 10.3093 100.747C11.0438 100.339 15.2606 100.176 16.8657 100.475Z"/>
            <path d="M8.13285 107.467C12.3497 109.643 15.1518 113.642 16.2944 119.111C17.8179 126.293 19.1781 129.612 22.0891 133.312C23.0413 134.509 24.5376 136.032 25.4081 136.685C28.5911 139.134 29.3529 139.95 29.2713 140.848C29.1352 142.153 27.911 142.643 24.592 142.643C18.362 142.643 12.7577 139.977 7.53434 134.563C2.50139 129.367 -0.436769 121.886 0.0529239 115.52C0.379386 111.167 1.4948 107.358 2.61021 106.76C2.93667 106.596 3.83444 106.46 4.65059 106.46C5.84762 106.46 6.55495 106.678 8.13285 107.467Z"/>
        </g>
        <g id="seed-3" className='sidebar-stroke'>
            <path d="M21.7017 200.797C16.5055 201.722 12.0438 204.197 7.74543 208.55C1.46104 214.835 -1.20507 223.377 0.508856 231.702C1.13457 234.776 1.86911 236.245 2.98452 236.707C5.05212 237.578 8.86084 236.027 11.7174 233.198C14.1386 230.777 15.5533 227.893 16.4239 223.649C17.4305 218.806 17.6753 217.99 18.8995 215.297C20.8583 211.08 23.0891 208.36 26.9795 205.367C28.2309 204.442 29.1559 203.49 29.2647 203.136C29.4551 202.347 29.0199 201.477 28.2581 201.069C27.5236 200.661 23.3068 200.497 21.7017 200.797Z"/>
            <path d="M30.4345 207.788C26.2177 209.965 23.4156 213.964 22.273 219.432C20.7495 226.614 19.3892 229.933 16.4783 233.633C15.5261 234.83 14.0298 236.354 13.1593 237.007C9.97625 239.455 9.21451 240.271 9.29612 241.169C9.43215 242.475 10.6564 242.965 13.9754 242.965C20.2054 242.965 25.8097 240.299 31.033 234.885C36.066 229.689 39.0042 222.207 38.5145 215.841C38.188 211.488 37.0726 207.68 35.9572 207.081C35.6307 206.918 34.7329 206.782 33.9168 206.782C32.7198 206.782 32.0124 206.999 30.4345 207.788Z"/>
        </g>
    </g>
</svg>
