<svg width="158" height="48" viewBox="0 0 158 48" fill="none" xmlns="http://www.w3.org/2000/svg">
<g clip-path="url(#clip0_424_21)">
<path d="M15.9991 6C15.3661 6.45434 14.8532 7.05594 14.5048 7.75285C14.1563 8.44975 13.9828 9.22101 13.9991 10C13.9828 10.779 14.1563 11.5502 14.5048 12.2472C14.8532 12.9441 15.3661 13.5457 15.9991 14" stroke="black" stroke-width="1.5" stroke-linecap="round" stroke-linejoin="round"/>
<path d="M23.9991 6C23.3661 6.45434 22.8532 7.05594 22.5048 7.75285C22.1563 8.44975 21.9828 9.22101 21.9991 10C21.9828 10.779 22.1563 11.5502 22.5048 12.2472C22.8532 12.9441 23.3661 13.5457 23.9991 14" stroke="black" stroke-width="1.5" stroke-linecap="round" stroke-linejoin="round"/>
<path d="M13 30C10.154 30.034 7.66 29.284 6 28V30C6 33.1826 7.26428 36.2349 9.51472 38.4853C11.7652 40.7357 14.8174 42 18 42H22C25.1826 42 28.2348 40.7357 30.4853 38.4853C32.7357 36.2349 34 33.1826 34 30V28C32.34 26.716 29.846 25.966 27 26C24.154 25.966 21.66 26.716 20 28C18.34 29.284 15.846 30.034 13 30Z" fill="#B1C918"/>
<path d="M34 30V20H6V30M34 30C34 33.1826 32.7357 36.2349 30.4853 38.4853C28.2348 40.7357 25.1826 42 22 42H18C14.8174 42 11.7652 40.7357 9.51472 38.4853C7.26428 36.2349 6 33.1826 6 30M34 30V28C32.34 26.716 29.846 25.966 27 26C24.154 25.966 21.66 26.716 20 28C18.34 29.284 15.846 30.034 13 30C10.154 30.034 7.66 29.284 6 28V30" stroke="black" stroke-width="1.5" stroke-linecap="round" stroke-linejoin="round"/>
<path d="M33.4922 33.452C34.3854 33.862 35.3656 34.0464 36.3468 33.9888C37.3279 33.9313 38.2799 33.6336 39.119 33.1219C39.9581 32.6103 40.6587 31.9003 41.1592 31.0545C41.6597 30.2087 41.9447 29.2528 41.9893 28.271C42.0338 27.2892 41.8365 26.3115 41.4146 25.4238C40.9928 24.5361 40.3594 23.7657 39.57 23.1802C38.7806 22.5946 37.8595 22.212 36.8876 22.0658C35.9157 21.9197 34.9228 22.0145 33.9962 22.342" stroke="black" stroke-width="1.5" stroke-linecap="round" stroke-linejoin="round"/>
</g>
<path d="M76.32 18.872C76.5067 18.872 76.6 18.9653 76.6 19.152V19.908C76.6 20.0947 76.5067 20.188 76.32 20.188H71.588C71.5133 20.188 71.476 20.2253 71.476 20.3V34.72C71.476 34.9067 71.3827 35 71.196 35H70.272C70.0853 35 69.992 34.9067 69.992 34.72V20.3C69.992 20.2253 69.9547 20.188 69.88 20.188H65.344C65.1573 20.188 65.064 20.0947 65.064 19.908V19.152C65.064 18.9653 65.1573 18.872 65.344 18.872H76.32ZM89.7193 35C89.5513 35 89.4393 34.9253 89.3833 34.776L88.4313 31.864C88.4126 31.808 88.3753 31.78 88.3193 31.78H80.9833C80.9273 31.78 80.89 31.808 80.8713 31.864L79.9193 34.776C79.8633 34.9253 79.7513 35 79.5833 35H78.6873C78.482 35 78.4073 34.8973 78.4633 34.692L83.7273 19.096C83.7833 18.9467 83.8953 18.872 84.0633 18.872H85.1833C85.3513 18.872 85.4633 18.9467 85.5193 19.096L90.8393 34.692L90.8673 34.804C90.8673 34.9347 90.7833 35 90.6153 35H89.7193ZM81.3753 30.408C81.3566 30.4453 81.3566 30.4827 81.3753 30.52C81.394 30.5387 81.422 30.548 81.4593 30.548H87.8433C87.8806 30.548 87.9086 30.5387 87.9273 30.52C87.946 30.4827 87.946 30.4453 87.9273 30.408L84.7353 20.692C84.7166 20.6547 84.6886 20.636 84.6513 20.636C84.614 20.636 84.586 20.6547 84.5673 20.692L81.3753 30.408ZM95.7301 35C95.5435 35 95.4501 34.9067 95.4501 34.72V19.152C95.4501 18.9653 95.5435 18.872 95.7301 18.872H101.302C102.851 18.872 104.083 19.2733 104.998 20.076C105.931 20.86 106.398 21.924 106.398 23.268V30.576C106.398 31.9387 105.931 33.0213 104.998 33.824C104.083 34.608 102.851 35 101.302 35H95.7301ZM96.9341 33.572C96.9341 33.6467 96.9715 33.684 97.0461 33.684H101.386C102.45 33.684 103.299 33.3947 103.934 32.816C104.569 32.2187 104.895 31.416 104.914 30.408V23.464C104.914 22.456 104.597 21.6627 103.962 21.084C103.327 20.4867 102.469 20.188 101.386 20.188H97.0461C96.9715 20.188 96.9341 20.2253 96.9341 20.3V33.572ZM122.31 19.936C122.31 20.1227 122.217 20.216 122.03 20.216H113.126C113.052 20.216 113.014 20.2533 113.014 20.328V26.124C113.014 26.1987 113.052 26.236 113.126 26.236H119.398C119.585 26.236 119.678 26.3293 119.678 26.516V27.272C119.678 27.4587 119.585 27.552 119.398 27.552H113.126C113.052 27.552 113.014 27.5893 113.014 27.664V33.572C113.014 33.6467 113.052 33.684 113.126 33.684H122.03C122.217 33.684 122.31 33.7773 122.31 33.964V34.72C122.31 34.9067 122.217 35 122.03 35H111.81C111.624 35 111.53 34.9067 111.53 34.72V19.152C111.53 18.9653 111.624 18.872 111.81 18.872H122.03C122.217 18.872 122.31 18.9653 122.31 19.152V19.936ZM138.256 19.04C138.331 18.928 138.443 18.872 138.592 18.872H139.544C139.731 18.872 139.824 18.9653 139.824 19.152V34.72C139.824 34.9067 139.731 35 139.544 35H138.62C138.433 35 138.34 34.9067 138.34 34.72V21.504C138.34 21.448 138.321 21.4107 138.284 21.392C138.247 21.3733 138.219 21.392 138.2 21.448L134.196 27.552C134.103 27.6827 133.991 27.748 133.86 27.748H133.412C133.281 27.748 133.169 27.692 133.076 27.58L129.016 21.42C128.997 21.364 128.969 21.3453 128.932 21.364C128.895 21.3827 128.876 21.42 128.876 21.476V34.72C128.876 34.9067 128.783 35 128.596 35H127.672C127.485 35 127.392 34.9067 127.392 34.72V19.152C127.392 18.9653 127.485 18.872 127.672 18.872H128.652C128.801 18.872 128.913 18.928 128.988 19.04L133.552 25.956C133.571 25.9747 133.599 25.984 133.636 25.984C133.673 25.984 133.701 25.9747 133.72 25.956L138.256 19.04ZM155.736 35C155.568 35 155.456 34.9253 155.4 34.776L154.448 31.864C154.429 31.808 154.392 31.78 154.336 31.78H147C146.944 31.78 146.907 31.808 146.888 31.864L145.936 34.776C145.88 34.9253 145.768 35 145.6 35H144.704C144.499 35 144.424 34.8973 144.48 34.692L149.744 19.096C149.8 18.9467 149.912 18.872 150.08 18.872H151.2C151.368 18.872 151.48 18.9467 151.536 19.096L156.856 34.692L156.884 34.804C156.884 34.9347 156.8 35 156.632 35H155.736ZM147.392 30.408C147.373 30.4453 147.373 30.4827 147.392 30.52C147.411 30.5387 147.439 30.548 147.476 30.548H153.86C153.897 30.548 153.925 30.5387 153.944 30.52C153.963 30.4827 153.963 30.4453 153.944 30.408L150.752 20.692C150.733 20.6547 150.705 20.636 150.668 20.636C150.631 20.636 150.603 20.6547 150.584 20.692L147.392 30.408Z" fill="black"/>
<defs>
<clipPath id="clip0_424_21">
<rect width="48" height="48" fill="white"/>
</clipPath>
</defs>
</svg>
